M48
;GenerationSoftware,Autodesk,EAGLE,9.1.0*%
;CreationDate,2018-10-25T18:21:55Z*%
FMAT,2
ICI,OFF
METRIC,TZ,000.000
T6C0.350
T5C0.813
T4C0.900
T3C1.016
T2C1.194
T1C3.000
%
G90
M71
T1
X62484Y80696
X2489Y81077
X24003Y2819
T2
X53340Y76160
X53340Y71160
T3
X58420Y44450
X58420Y41910
X58420Y35027
X58420Y32487
X58420Y17958
X58420Y25578
X58420Y23038
X58420Y20498
X58496Y3327
X58496Y10947
X58496Y8407
X58496Y5867
X36043Y20015
X36043Y27635
X36043Y25095
X36043Y22555
X50800Y5740
X50800Y8280
X50800Y10820
X50800Y13360
X50800Y20980
X50800Y18440
X50800Y15900
X50800Y3200
X43180Y3378
X43180Y10998
X43180Y8458
X43180Y5918
X50800Y27559
X50800Y35179
X50800Y32639
X50800Y30099
X50800Y44323
X50800Y41783
X50800Y53950
X50800Y51410
X50800Y63500
X50800Y60960
X35458Y12497
X35458Y9957
X35458Y7417
X35458Y4877
X22860Y62230
X22860Y64770
X22860Y67310
X22860Y69850
X44450Y39370
X44450Y41910
X44450Y44450
X44450Y46990
X22860Y39370
X22860Y41910
X22860Y44450
X22860Y46990
X44450Y62230
X44450Y64770
X44450Y67310
X44450Y69850
X34290Y73660
X12700Y68580
X12700Y73660
X58420Y54051
X58420Y51511
X35560Y58420
X33020Y58420
X35560Y60960
X33020Y60960
X35560Y63500
X33020Y63500
X13970Y35560
X11430Y35560
X13970Y38100
X11430Y38100
X13970Y40640
X11430Y40640
X35560Y35560
X33020Y35560
X35560Y38100
X33020Y38100
X35560Y40640
X33020Y40640
X13970Y58420
X11430Y58420
X13970Y60960
X11430Y60960
X13970Y63500
X11430Y63500
X34290Y68580
X12700Y50800
X12700Y45720
X34290Y50800
X34290Y45720
T4
X27940Y39370
X27940Y36830
X27940Y34290
X40640Y34290
X40640Y36830
X40640Y39370
X40640Y41910
X40640Y44450
X40640Y46990
X40640Y49530
X40640Y52070
X6350Y74930
X6350Y72390
X6350Y69850
X6350Y67310
X6350Y64770
X6350Y62230
X6350Y59690
X6350Y57150
X19050Y57150
X19050Y59690
X19050Y62230
X19050Y64770
X19050Y67310
X19050Y69850
X19050Y72390
X19050Y74930
X6350Y52070
X6350Y49530
X6350Y46990
X6350Y44450
X6350Y41910
X6350Y39370
X6350Y36830
X6350Y34290
X19050Y34290
X19050Y36830
X19050Y39370
X19050Y41910
X19050Y44450
X19050Y46990
X19050Y49530
X19050Y52070
X27940Y74930
X27940Y72390
X27940Y69850
X27940Y67310
X27940Y64770
X27940Y62230
X27940Y59690
X27940Y57150
X40640Y57150
X40640Y59690
X40640Y62230
X40640Y64770
X40640Y67310
X40640Y69850
X40640Y72390
X40640Y74930
X4370Y6350
X10870Y6350
X27940Y52070
X27940Y49530
X27940Y46990
X27940Y44450
X27940Y41910
T5
X12700Y24257
X12700Y29083
T6
X21717Y26987
X9525Y26511
X40164Y30956
X23495Y30797
X38576Y31591
X24130Y31591
X23019Y16351
X20638Y17780
X40958Y26511
X30004Y25717
X25241Y32226
X56356Y22701
X53340Y33655
X25876Y33020
X26829Y22384
X16351Y8255
X30004Y23019
X28575Y16351
X48736Y15716
X30004Y16510
X25717Y24765
X39211Y29686
X24765Y30321
X55880Y15716
X25876Y21749
X48101Y18256
X27940Y18733
X45720Y14129
X26035Y15716
X24765Y15716
X30004Y29051
X28416Y29051
X31274Y26670
X30004Y26670
X28734Y38418
X32702Y24765
X46514Y13494
X30004Y24765
X26829Y23336
X8890Y24130
X9525Y29210
X46990Y42863
X45244Y36513
X25082Y26670
X29051Y28257
X23812Y26035
X23019Y24765
X22676Y22638
X22384Y19368
X19685Y20638
X6350Y30480
X26987Y27781
X21857Y21927
X26670Y19368
X25400Y19368
X32226Y17145
X29210Y17145
X16510Y14446
X33179Y42228
X15399Y42228
X21717Y25114
X7779Y22701
X46831Y25876
X16828Y27622
X27622Y25876
M30