G04 EAGLE Gerber X2 export*
%TF.Part,Single*%
%TF.FileFunction,Paste,Top*%
%TF.FilePolarity,Positive*%
%TF.GenerationSoftware,Autodesk,EAGLE,9.1.0*%
%TF.CreationDate,2018-10-25T18:21:55Z*%
G75*
%MOMM*%
%FSLAX34Y34*%
%LPD*%
%AMOC8*
5,1,8,0,0,1.08239X$1,22.5*%
G01*
%ADD10C,0.300000*%
%ADD11R,0.800000X1.200000*%
%ADD12R,1.200000X0.800000*%
%ADD13R,1.200000X0.300000*%
%ADD14R,0.300000X1.200000*%
%ADD15R,1.300000X1.500000*%
%ADD16R,1.500000X1.300000*%
%ADD17R,0.889000X0.787400*%


D10*
X155900Y157670D02*
X148900Y157670D01*
X148900Y164670D01*
X155900Y164670D01*
X155900Y157670D01*
X155900Y160520D02*
X148900Y160520D01*
X148900Y163370D02*
X155900Y163370D01*
X155900Y140130D02*
X148900Y140130D01*
X148900Y147130D01*
X155900Y147130D01*
X155900Y140130D01*
X155900Y142980D02*
X148900Y142980D01*
X148900Y145830D02*
X155900Y145830D01*
X130500Y157670D02*
X123500Y157670D01*
X123500Y164670D01*
X130500Y164670D01*
X130500Y157670D01*
X130500Y160520D02*
X123500Y160520D01*
X123500Y163370D02*
X130500Y163370D01*
X130500Y140130D02*
X123500Y140130D01*
X123500Y147130D01*
X130500Y147130D01*
X130500Y140130D01*
X130500Y142980D02*
X123500Y142980D01*
X123500Y145830D02*
X130500Y145830D01*
D11*
X263000Y749300D03*
X245000Y749300D03*
D12*
X127000Y199500D03*
X127000Y181500D03*
D11*
X263000Y520700D03*
X245000Y520700D03*
X47100Y520700D03*
X29100Y520700D03*
X47100Y749300D03*
X29100Y749300D03*
D12*
X165100Y415400D03*
X165100Y397400D03*
X381000Y644000D03*
X381000Y626000D03*
X381000Y415400D03*
X381000Y397400D03*
X165100Y631300D03*
X165100Y613300D03*
X152400Y199500D03*
X152400Y181500D03*
D13*
X203372Y275658D03*
X203372Y270658D03*
X203372Y265658D03*
X203372Y260658D03*
X203372Y255658D03*
X203372Y250658D03*
X203372Y245658D03*
X203372Y240658D03*
X203372Y235658D03*
X203372Y230658D03*
X203372Y225658D03*
X203372Y220658D03*
X288372Y275658D03*
X288372Y270658D03*
X288372Y265658D03*
X288372Y260658D03*
X288372Y255658D03*
X288372Y250658D03*
X288372Y245658D03*
X288372Y240658D03*
X288372Y235658D03*
X288372Y230658D03*
X288372Y225658D03*
X288372Y220658D03*
D14*
X218372Y290658D03*
X223372Y290658D03*
X228372Y290658D03*
X233372Y290658D03*
X238372Y290658D03*
X243372Y290658D03*
X248372Y290658D03*
X253372Y290658D03*
X258372Y290658D03*
X263372Y290658D03*
X268372Y290658D03*
X273372Y290658D03*
X218372Y205658D03*
X223372Y205658D03*
X228372Y205658D03*
X233372Y205658D03*
X238372Y205658D03*
X243372Y205658D03*
X248372Y205658D03*
X253372Y205658D03*
X258372Y205658D03*
X263372Y205658D03*
X268372Y205658D03*
X273372Y205658D03*
D15*
X54000Y292100D03*
X73000Y292100D03*
X54000Y241300D03*
X73000Y241300D03*
D16*
X185166Y125374D03*
X185166Y144374D03*
X224028Y125374D03*
X224028Y144374D03*
X254508Y144628D03*
X254508Y125628D03*
X290576Y144120D03*
X290576Y125120D03*
D10*
X105100Y157670D02*
X98100Y157670D01*
X98100Y164670D01*
X105100Y164670D01*
X105100Y157670D01*
X105100Y160520D02*
X98100Y160520D01*
X98100Y163370D02*
X105100Y163370D01*
X105100Y140130D02*
X98100Y140130D01*
X98100Y147130D01*
X105100Y147130D01*
X105100Y140130D01*
X105100Y142980D02*
X98100Y142980D01*
X98100Y145830D02*
X105100Y145830D01*
X79700Y157670D02*
X72700Y157670D01*
X72700Y164670D01*
X79700Y164670D01*
X79700Y157670D01*
X79700Y160520D02*
X72700Y160520D01*
X72700Y163370D02*
X79700Y163370D01*
X79700Y140130D02*
X72700Y140130D01*
X72700Y147130D01*
X79700Y147130D01*
X79700Y140130D01*
X79700Y142980D02*
X72700Y142980D01*
X72700Y145830D02*
X79700Y145830D01*
D12*
X101600Y199500D03*
X101600Y181500D03*
X76200Y199500D03*
X76200Y181500D03*
D10*
X54300Y157670D02*
X47300Y157670D01*
X47300Y164670D01*
X54300Y164670D01*
X54300Y157670D01*
X54300Y160520D02*
X47300Y160520D01*
X47300Y163370D02*
X54300Y163370D01*
X54300Y140130D02*
X47300Y140130D01*
X47300Y147130D01*
X54300Y147130D01*
X54300Y140130D01*
X54300Y142980D02*
X47300Y142980D01*
X47300Y145830D02*
X54300Y145830D01*
X28900Y157670D02*
X21900Y157670D01*
X21900Y164670D01*
X28900Y164670D01*
X28900Y157670D01*
X28900Y160520D02*
X21900Y160520D01*
X21900Y163370D02*
X28900Y163370D01*
X28900Y140130D02*
X21900Y140130D01*
X21900Y147130D01*
X28900Y147130D01*
X28900Y140130D01*
X28900Y142980D02*
X21900Y142980D01*
X21900Y145830D02*
X28900Y145830D01*
D12*
X50800Y199500D03*
X50800Y181500D03*
X25400Y199500D03*
X25400Y181500D03*
D17*
X155702Y91186D03*
X155702Y110490D03*
X135382Y100838D03*
D11*
X164448Y70358D03*
X146448Y70358D03*
D17*
X438150Y200152D03*
X438150Y180848D03*
X458470Y190500D03*
D12*
X416560Y180738D03*
X416560Y198738D03*
D17*
X438658Y252222D03*
X438658Y232918D03*
X458978Y242570D03*
D12*
X416306Y233570D03*
X416306Y251570D03*
D17*
X439928Y308356D03*
X439928Y289052D03*
X460248Y298704D03*
D12*
X415290Y290212D03*
X415290Y308212D03*
M02*
