G04 EAGLE Gerber X2 export*
%TF.Part,Single*%
%TF.FileFunction,Soldermask,Bot,1*%
%TF.FilePolarity,Negative*%
%TF.GenerationSoftware,Autodesk,EAGLE,9.1.0*%
%TF.CreationDate,2018-10-25T18:21:55Z*%
G75*
%MOMM*%
%FSLAX34Y34*%
%LPD*%
%AMOC8*
5,1,8,0,0,1.08239X$1,22.5*%
G01*
%ADD10C,3.203200*%
%ADD11R,2.082800X2.082800*%
%ADD12P,2.254402X8X112.500000*%
%ADD13C,1.611200*%
%ADD14C,1.993900*%
%ADD15C,1.524000*%
%ADD16C,1.727200*%
%ADD17C,1.981200*%
%ADD18C,2.743200*%
%ADD19P,2.969212X8X292.500000*%
%ADD20C,0.959600*%


D10*
X624840Y806958D03*
X24892Y810768D03*
X240030Y28194D03*
D11*
X355600Y584200D03*
D12*
X330200Y584200D03*
X355600Y609600D03*
X330200Y609600D03*
X355600Y635000D03*
X330200Y635000D03*
D11*
X139700Y355600D03*
D12*
X114300Y355600D03*
X139700Y381000D03*
X114300Y381000D03*
X139700Y406400D03*
X114300Y406400D03*
D11*
X355600Y355600D03*
D12*
X330200Y355600D03*
X355600Y381000D03*
X330200Y381000D03*
X355600Y406400D03*
X330200Y406400D03*
D11*
X139700Y584200D03*
D12*
X114300Y584200D03*
X139700Y609600D03*
X114300Y609600D03*
X139700Y635000D03*
X114300Y635000D03*
D13*
X279400Y520700D03*
X279400Y495300D03*
X279400Y469900D03*
X279400Y444500D03*
X279400Y419100D03*
X279400Y393700D03*
X279400Y368300D03*
X279400Y342900D03*
X406400Y342900D03*
X406400Y368300D03*
X406400Y393700D03*
X406400Y419100D03*
X406400Y444500D03*
X406400Y469900D03*
X406400Y495300D03*
X406400Y520700D03*
X63500Y749300D03*
X63500Y723900D03*
X63500Y698500D03*
X63500Y673100D03*
X63500Y647700D03*
X63500Y622300D03*
X63500Y596900D03*
X63500Y571500D03*
X190500Y571500D03*
X190500Y596900D03*
X190500Y622300D03*
X190500Y647700D03*
X190500Y673100D03*
X190500Y698500D03*
X190500Y723900D03*
X190500Y749300D03*
X63500Y520700D03*
X63500Y495300D03*
X63500Y469900D03*
X63500Y444500D03*
X63500Y419100D03*
X63500Y393700D03*
X63500Y368300D03*
X63500Y342900D03*
X190500Y342900D03*
X190500Y368300D03*
X190500Y393700D03*
X190500Y419100D03*
X190500Y444500D03*
X190500Y469900D03*
X190500Y495300D03*
X190500Y520700D03*
X279400Y749300D03*
X279400Y723900D03*
X279400Y698500D03*
X279400Y673100D03*
X279400Y647700D03*
X279400Y622300D03*
X279400Y596900D03*
X279400Y571500D03*
X406400Y571500D03*
X406400Y596900D03*
X406400Y622300D03*
X406400Y647700D03*
X406400Y673100D03*
X406400Y698500D03*
X406400Y723900D03*
X406400Y749300D03*
D14*
X524447Y711600D02*
X542354Y711600D01*
X542354Y761600D02*
X524447Y761600D01*
D15*
X127000Y242570D03*
X127000Y290830D03*
D16*
X436880Y698500D02*
X452120Y698500D01*
X452120Y673100D02*
X436880Y673100D01*
X436880Y647700D02*
X452120Y647700D01*
X452120Y622300D02*
X436880Y622300D01*
X236220Y469900D02*
X220980Y469900D01*
X220980Y444500D02*
X236220Y444500D01*
X236220Y419100D02*
X220980Y419100D01*
X220980Y393700D02*
X236220Y393700D01*
X436880Y469900D02*
X452120Y469900D01*
X452120Y444500D02*
X436880Y444500D01*
X436880Y419100D02*
X452120Y419100D01*
X452120Y393700D02*
X436880Y393700D01*
X236220Y698500D02*
X220980Y698500D01*
X220980Y673100D02*
X236220Y673100D01*
X236220Y647700D02*
X220980Y647700D01*
X220980Y622300D02*
X236220Y622300D01*
X346964Y48768D02*
X362204Y48768D01*
X362204Y74168D02*
X346964Y74168D01*
X346964Y99568D02*
X362204Y99568D01*
X362204Y124968D02*
X346964Y124968D01*
X500380Y609600D02*
X515620Y609600D01*
X515620Y635000D02*
X500380Y635000D01*
X500380Y514096D02*
X515620Y514096D01*
X515620Y539496D02*
X500380Y539496D01*
X500380Y417830D02*
X515620Y417830D01*
X515620Y443230D02*
X500380Y443230D01*
X500380Y300990D02*
X515620Y300990D01*
X515620Y326390D02*
X500380Y326390D01*
X500380Y351790D02*
X515620Y351790D01*
X515620Y275590D02*
X500380Y275590D01*
X439420Y59182D02*
X424180Y59182D01*
X424180Y84582D02*
X439420Y84582D01*
X439420Y109982D02*
X424180Y109982D01*
X424180Y33782D02*
X439420Y33782D01*
X500380Y159004D02*
X515620Y159004D01*
X515620Y184404D02*
X500380Y184404D01*
X500380Y209804D02*
X515620Y209804D01*
X515620Y133604D02*
X500380Y133604D01*
X500380Y108204D02*
X515620Y108204D01*
X515620Y82804D02*
X500380Y82804D01*
X500380Y57404D02*
X515620Y57404D01*
X515620Y32004D02*
X500380Y32004D01*
X368046Y225552D02*
X352806Y225552D01*
X352806Y250952D02*
X368046Y250952D01*
X368046Y276352D02*
X352806Y276352D01*
X352806Y200152D02*
X368046Y200152D01*
D17*
X43700Y63500D03*
X108700Y63500D03*
D16*
X577342Y58674D02*
X592582Y58674D01*
X592582Y84074D02*
X577342Y84074D01*
X577342Y109474D02*
X592582Y109474D01*
X592582Y33274D02*
X577342Y33274D01*
X576580Y204978D02*
X591820Y204978D01*
X591820Y230378D02*
X576580Y230378D01*
X576580Y255778D02*
X591820Y255778D01*
X591820Y179578D02*
X576580Y179578D01*
X576580Y324866D02*
X591820Y324866D01*
X591820Y350266D02*
X576580Y350266D01*
X576580Y419100D02*
X591820Y419100D01*
X591820Y444500D02*
X576580Y444500D01*
X576580Y515112D02*
X591820Y515112D01*
X591820Y540512D02*
X576580Y540512D01*
D18*
X127000Y736600D03*
D19*
X127000Y685800D03*
D18*
X342900Y736600D03*
D19*
X342900Y685800D03*
D18*
X127000Y508000D03*
D19*
X127000Y457200D03*
D18*
X342900Y508000D03*
D19*
X342900Y457200D03*
D20*
X153988Y422275D03*
X331788Y422275D03*
X165100Y144463D03*
X292100Y171450D03*
X322263Y171450D03*
X254000Y193675D03*
X266700Y193675D03*
X218567Y219266D03*
X269875Y277813D03*
X63500Y304800D03*
X196850Y206375D03*
X223838Y193675D03*
X226759Y226378D03*
X230188Y247650D03*
X238125Y260350D03*
X290513Y282575D03*
X250825Y266700D03*
X95250Y292100D03*
X88900Y241300D03*
X268288Y233363D03*
X300038Y247650D03*
X327025Y247650D03*
X287338Y384175D03*
X300038Y266700D03*
X312738Y266700D03*
X284163Y290513D03*
X300038Y290513D03*
X247650Y157163D03*
X465138Y134938D03*
X260350Y157163D03*
X457200Y141288D03*
X279400Y187325D03*
X481013Y182563D03*
X258763Y217488D03*
X558800Y157163D03*
X247650Y303213D03*
X392113Y296863D03*
X257175Y247650D03*
X300038Y165100D03*
X487363Y157163D03*
X285750Y163513D03*
X300038Y230188D03*
X163513Y82550D03*
X268288Y223838D03*
X258763Y330200D03*
X533400Y336550D03*
X563563Y227013D03*
X252413Y322263D03*
X300038Y257175D03*
X409575Y265113D03*
X206375Y177800D03*
X230188Y163513D03*
X241300Y315913D03*
X385763Y315913D03*
X234950Y307975D03*
X401638Y309563D03*
X95250Y265113D03*
X217170Y269875D03*
X77788Y227013D03*
X217170Y251143D03*
X276225Y258763D03*
X168275Y276225D03*
X468313Y258763D03*
X452438Y365125D03*
X469900Y428625D03*
M02*
