G04 EAGLE Gerber X2 export*
%TF.Part,Single*%
%TF.FileFunction,Soldermask,Top,1*%
%TF.FilePolarity,Negative*%
%TF.GenerationSoftware,Autodesk,EAGLE,9.1.0*%
%TF.CreationDate,2018-10-25T18:21:55Z*%
G75*
%MOMM*%
%FSLAX34Y34*%
%LPD*%
%AMOC8*
5,1,8,0,0,1.08239X$1,22.5*%
G01*
%ADD10C,3.203200*%
%ADD11C,0.505344*%
%ADD12R,2.082800X2.082800*%
%ADD13P,2.254402X8X112.500000*%
%ADD14R,1.003200X1.403200*%
%ADD15R,1.403200X1.003200*%
%ADD16C,1.611200*%
%ADD17C,1.993900*%
%ADD18R,1.403200X0.503200*%
%ADD19R,0.503200X1.403200*%
%ADD20C,1.524000*%
%ADD21R,1.503200X1.703200*%
%ADD22C,1.727200*%
%ADD23R,1.703200X1.503200*%
%ADD24C,1.981200*%
%ADD25R,1.092200X0.990600*%
%ADD26C,2.743200*%
%ADD27P,2.969212X8X292.500000*%
%ADD28C,0.959600*%


D10*
X624840Y806958D03*
X24892Y810768D03*
X240030Y28194D03*
D11*
X155890Y157680D02*
X148910Y157680D01*
X148910Y164660D01*
X155890Y164660D01*
X155890Y157680D01*
X155890Y162480D02*
X148910Y162480D01*
X148910Y140140D02*
X155890Y140140D01*
X148910Y140140D02*
X148910Y147120D01*
X155890Y147120D01*
X155890Y140140D01*
X155890Y144940D02*
X148910Y144940D01*
X130490Y157680D02*
X123510Y157680D01*
X123510Y164660D01*
X130490Y164660D01*
X130490Y157680D01*
X130490Y162480D02*
X123510Y162480D01*
X123510Y140140D02*
X130490Y140140D01*
X123510Y140140D02*
X123510Y147120D01*
X130490Y147120D01*
X130490Y140140D01*
X130490Y144940D02*
X123510Y144940D01*
D12*
X355600Y584200D03*
D13*
X330200Y584200D03*
X355600Y609600D03*
X330200Y609600D03*
X355600Y635000D03*
X330200Y635000D03*
D12*
X139700Y355600D03*
D13*
X114300Y355600D03*
X139700Y381000D03*
X114300Y381000D03*
X139700Y406400D03*
X114300Y406400D03*
D12*
X355600Y355600D03*
D13*
X330200Y355600D03*
X355600Y381000D03*
X330200Y381000D03*
X355600Y406400D03*
X330200Y406400D03*
D12*
X139700Y584200D03*
D13*
X114300Y584200D03*
X139700Y609600D03*
X114300Y609600D03*
X139700Y635000D03*
X114300Y635000D03*
D14*
X263000Y749300D03*
X245000Y749300D03*
D15*
X127000Y199500D03*
X127000Y181500D03*
D14*
X263000Y520700D03*
X245000Y520700D03*
X47100Y520700D03*
X29100Y520700D03*
X47100Y749300D03*
X29100Y749300D03*
D15*
X165100Y415400D03*
X165100Y397400D03*
X381000Y644000D03*
X381000Y626000D03*
X381000Y415400D03*
X381000Y397400D03*
X165100Y631300D03*
X165100Y613300D03*
X152400Y199500D03*
X152400Y181500D03*
D16*
X279400Y520700D03*
X279400Y495300D03*
X279400Y469900D03*
X279400Y444500D03*
X279400Y419100D03*
X279400Y393700D03*
X279400Y368300D03*
X279400Y342900D03*
X406400Y342900D03*
X406400Y368300D03*
X406400Y393700D03*
X406400Y419100D03*
X406400Y444500D03*
X406400Y469900D03*
X406400Y495300D03*
X406400Y520700D03*
X63500Y749300D03*
X63500Y723900D03*
X63500Y698500D03*
X63500Y673100D03*
X63500Y647700D03*
X63500Y622300D03*
X63500Y596900D03*
X63500Y571500D03*
X190500Y571500D03*
X190500Y596900D03*
X190500Y622300D03*
X190500Y647700D03*
X190500Y673100D03*
X190500Y698500D03*
X190500Y723900D03*
X190500Y749300D03*
X63500Y520700D03*
X63500Y495300D03*
X63500Y469900D03*
X63500Y444500D03*
X63500Y419100D03*
X63500Y393700D03*
X63500Y368300D03*
X63500Y342900D03*
X190500Y342900D03*
X190500Y368300D03*
X190500Y393700D03*
X190500Y419100D03*
X190500Y444500D03*
X190500Y469900D03*
X190500Y495300D03*
X190500Y520700D03*
X279400Y749300D03*
X279400Y723900D03*
X279400Y698500D03*
X279400Y673100D03*
X279400Y647700D03*
X279400Y622300D03*
X279400Y596900D03*
X279400Y571500D03*
X406400Y571500D03*
X406400Y596900D03*
X406400Y622300D03*
X406400Y647700D03*
X406400Y673100D03*
X406400Y698500D03*
X406400Y723900D03*
X406400Y749300D03*
D17*
X524447Y711600D02*
X542354Y711600D01*
X542354Y761600D02*
X524447Y761600D01*
D18*
X203372Y275658D03*
X203372Y270658D03*
X203372Y265658D03*
X203372Y260658D03*
X203372Y255658D03*
X203372Y250658D03*
X203372Y245658D03*
X203372Y240658D03*
X203372Y235658D03*
X203372Y230658D03*
X203372Y225658D03*
X203372Y220658D03*
X288372Y275658D03*
X288372Y270658D03*
X288372Y265658D03*
X288372Y260658D03*
X288372Y255658D03*
X288372Y250658D03*
X288372Y245658D03*
X288372Y240658D03*
X288372Y235658D03*
X288372Y230658D03*
X288372Y225658D03*
X288372Y220658D03*
D19*
X218372Y290658D03*
X223372Y290658D03*
X228372Y290658D03*
X233372Y290658D03*
X238372Y290658D03*
X243372Y290658D03*
X248372Y290658D03*
X253372Y290658D03*
X258372Y290658D03*
X263372Y290658D03*
X268372Y290658D03*
X273372Y290658D03*
X218372Y205658D03*
X223372Y205658D03*
X228372Y205658D03*
X233372Y205658D03*
X238372Y205658D03*
X243372Y205658D03*
X248372Y205658D03*
X253372Y205658D03*
X258372Y205658D03*
X263372Y205658D03*
X268372Y205658D03*
X273372Y205658D03*
D20*
X127000Y242570D03*
X127000Y290830D03*
D21*
X54000Y292100D03*
X73000Y292100D03*
X54000Y241300D03*
X73000Y241300D03*
D22*
X436880Y698500D02*
X452120Y698500D01*
X452120Y673100D02*
X436880Y673100D01*
X436880Y647700D02*
X452120Y647700D01*
X452120Y622300D02*
X436880Y622300D01*
X236220Y469900D02*
X220980Y469900D01*
X220980Y444500D02*
X236220Y444500D01*
X236220Y419100D02*
X220980Y419100D01*
X220980Y393700D02*
X236220Y393700D01*
X436880Y469900D02*
X452120Y469900D01*
X452120Y444500D02*
X436880Y444500D01*
X436880Y419100D02*
X452120Y419100D01*
X452120Y393700D02*
X436880Y393700D01*
X236220Y698500D02*
X220980Y698500D01*
X220980Y673100D02*
X236220Y673100D01*
X236220Y647700D02*
X220980Y647700D01*
X220980Y622300D02*
X236220Y622300D01*
D23*
X185166Y125374D03*
X185166Y144374D03*
X224028Y125374D03*
X224028Y144374D03*
X254508Y144628D03*
X254508Y125628D03*
X290576Y144120D03*
X290576Y125120D03*
D11*
X105090Y157680D02*
X98110Y157680D01*
X98110Y164660D01*
X105090Y164660D01*
X105090Y157680D01*
X105090Y162480D02*
X98110Y162480D01*
X98110Y140140D02*
X105090Y140140D01*
X98110Y140140D02*
X98110Y147120D01*
X105090Y147120D01*
X105090Y140140D01*
X105090Y144940D02*
X98110Y144940D01*
X79690Y157680D02*
X72710Y157680D01*
X72710Y164660D01*
X79690Y164660D01*
X79690Y157680D01*
X79690Y162480D02*
X72710Y162480D01*
X72710Y140140D02*
X79690Y140140D01*
X72710Y140140D02*
X72710Y147120D01*
X79690Y147120D01*
X79690Y140140D01*
X79690Y144940D02*
X72710Y144940D01*
D15*
X101600Y199500D03*
X101600Y181500D03*
X76200Y199500D03*
X76200Y181500D03*
D11*
X54290Y157680D02*
X47310Y157680D01*
X47310Y164660D01*
X54290Y164660D01*
X54290Y157680D01*
X54290Y162480D02*
X47310Y162480D01*
X47310Y140140D02*
X54290Y140140D01*
X47310Y140140D02*
X47310Y147120D01*
X54290Y147120D01*
X54290Y140140D01*
X54290Y144940D02*
X47310Y144940D01*
X28890Y157680D02*
X21910Y157680D01*
X21910Y164660D01*
X28890Y164660D01*
X28890Y157680D01*
X28890Y162480D02*
X21910Y162480D01*
X21910Y140140D02*
X28890Y140140D01*
X21910Y140140D02*
X21910Y147120D01*
X28890Y147120D01*
X28890Y140140D01*
X28890Y144940D02*
X21910Y144940D01*
D15*
X50800Y199500D03*
X50800Y181500D03*
X25400Y199500D03*
X25400Y181500D03*
D22*
X346964Y48768D02*
X362204Y48768D01*
X362204Y74168D02*
X346964Y74168D01*
X346964Y99568D02*
X362204Y99568D01*
X362204Y124968D02*
X346964Y124968D01*
X500380Y609600D02*
X515620Y609600D01*
X515620Y635000D02*
X500380Y635000D01*
X500380Y514096D02*
X515620Y514096D01*
X515620Y539496D02*
X500380Y539496D01*
X500380Y417830D02*
X515620Y417830D01*
X515620Y443230D02*
X500380Y443230D01*
X500380Y300990D02*
X515620Y300990D01*
X515620Y326390D02*
X500380Y326390D01*
X500380Y351790D02*
X515620Y351790D01*
X515620Y275590D02*
X500380Y275590D01*
X439420Y59182D02*
X424180Y59182D01*
X424180Y84582D02*
X439420Y84582D01*
X439420Y109982D02*
X424180Y109982D01*
X424180Y33782D02*
X439420Y33782D01*
X500380Y159004D02*
X515620Y159004D01*
X515620Y184404D02*
X500380Y184404D01*
X500380Y209804D02*
X515620Y209804D01*
X515620Y133604D02*
X500380Y133604D01*
X500380Y108204D02*
X515620Y108204D01*
X515620Y82804D02*
X500380Y82804D01*
X500380Y57404D02*
X515620Y57404D01*
X515620Y32004D02*
X500380Y32004D01*
X368046Y225552D02*
X352806Y225552D01*
X352806Y250952D02*
X368046Y250952D01*
X368046Y276352D02*
X352806Y276352D01*
X352806Y200152D02*
X368046Y200152D01*
D24*
X43700Y63500D03*
X108700Y63500D03*
D25*
X155702Y91186D03*
X155702Y110490D03*
X135382Y100838D03*
D22*
X577342Y58674D02*
X592582Y58674D01*
X592582Y84074D02*
X577342Y84074D01*
X577342Y109474D02*
X592582Y109474D01*
X592582Y33274D02*
X577342Y33274D01*
X576580Y204978D02*
X591820Y204978D01*
X591820Y230378D02*
X576580Y230378D01*
X576580Y255778D02*
X591820Y255778D01*
X591820Y179578D02*
X576580Y179578D01*
D14*
X164448Y70358D03*
X146448Y70358D03*
D25*
X438150Y200152D03*
X438150Y180848D03*
X458470Y190500D03*
D15*
X416560Y180738D03*
X416560Y198738D03*
D25*
X438658Y252222D03*
X438658Y232918D03*
X458978Y242570D03*
D15*
X416306Y233570D03*
X416306Y251570D03*
D25*
X439928Y308356D03*
X439928Y289052D03*
X460248Y298704D03*
D15*
X415290Y290212D03*
X415290Y308212D03*
D22*
X576580Y324866D02*
X591820Y324866D01*
X591820Y350266D02*
X576580Y350266D01*
X576580Y419100D02*
X591820Y419100D01*
X591820Y444500D02*
X576580Y444500D01*
X576580Y515112D02*
X591820Y515112D01*
X591820Y540512D02*
X576580Y540512D01*
D26*
X127000Y736600D03*
D27*
X127000Y685800D03*
D26*
X342900Y736600D03*
D27*
X342900Y685800D03*
D26*
X127000Y508000D03*
D27*
X127000Y457200D03*
D26*
X342900Y508000D03*
D27*
X342900Y457200D03*
D28*
X153988Y422275D03*
X331788Y422275D03*
X165100Y144463D03*
X292100Y171450D03*
X322263Y171450D03*
X254000Y193675D03*
X266700Y193675D03*
X218567Y219266D03*
X269875Y277813D03*
X63500Y304800D03*
X196850Y206375D03*
X223838Y193675D03*
X226759Y226378D03*
X230188Y247650D03*
X238125Y260350D03*
X290513Y282575D03*
X250825Y266700D03*
X95250Y292100D03*
X88900Y241300D03*
X268288Y233363D03*
X300038Y247650D03*
X327025Y247650D03*
X287338Y384175D03*
X300038Y266700D03*
X312738Y266700D03*
X284163Y290513D03*
X300038Y290513D03*
X247650Y157163D03*
X465138Y134938D03*
X260350Y157163D03*
X457200Y141288D03*
X279400Y187325D03*
X481013Y182563D03*
X258763Y217488D03*
X558800Y157163D03*
X247650Y303213D03*
X392113Y296863D03*
X257175Y247650D03*
X300038Y165100D03*
X487363Y157163D03*
X285750Y163513D03*
X300038Y230188D03*
X163513Y82550D03*
X268288Y223838D03*
X258763Y330200D03*
X533400Y336550D03*
X563563Y227013D03*
X252413Y322263D03*
X300038Y257175D03*
X409575Y265113D03*
X206375Y177800D03*
X230188Y163513D03*
X241300Y315913D03*
X385763Y315913D03*
X234950Y307975D03*
X401638Y309563D03*
X95250Y265113D03*
X217170Y269875D03*
X77788Y227013D03*
X217170Y251143D03*
X276225Y258763D03*
X168275Y276225D03*
X468313Y258763D03*
X452438Y365125D03*
X469900Y428625D03*
M02*
